<svg width="8" height="8" viewBox="0 0 8 8" fill="none" xmlns="http://www.w3.org/2000/svg">
<g id="SVG">
<path id="Vector" d="M7.08332 3.21224H4.79166V0.920573C4.79166 0.691406 4.60416 0.503906 4.375 0.503906H3.125C2.89584 0.503906 2.70834 0.691406 2.70834 0.920573V3.21224H0.416667C0.1875 3.21224 0 3.39974 0 3.6289V4.87891C0 5.10807 0.1875 5.29557 0.416667 5.29557H2.70834V7.58723C2.70834 7.81641 2.89584 8.00391 3.125 8.00391H4.375C4.60416 8.00391 4.79166 7.81641 4.79166 7.58723V5.29557H7.08332C7.3125 5.29557 7.5 5.10807 7.5 4.87891V3.6289C7.5 3.39974 7.3125 3.21224 7.08332 3.21224Z" fill="white"/>
</g>
</svg>
